<?xml version="1.0" encoding="UTF-8"?>
<svg id="_レイヤー_1" data-name="レイヤー 1" xmlns="http://www.w3.org/2000/svg" viewBox="0 0 78.39 78.39">
  <defs>
    <style>
      .cls-1 {
        fill: #fff;
      }

      .cls-2 {
        fill: #b3b3b3;
      }
    </style>
  </defs>
  <circle class="cls-1" cx="39.19" cy="39.2" r="39.2"/>
  <path class="cls-2" d="m45.84,39.2l14.85-14.85c1.84-1.84,1.84-4.81,0-6.65s-4.81-1.84-6.65,0l-14.85,14.85-14.85-14.85c-1.84-1.84-4.81-1.84-6.65,0s-1.84,4.81,0,6.65l14.85,14.85-14.85,14.85c-1.84,1.84-1.84,4.81,0,6.65s4.81,1.84,6.65,0l14.85-14.85,14.85,14.85c1.84,1.84,4.81,1.84,6.65,0s1.84-4.81,0-6.65l-14.85-14.85Z"/>
</svg>