<?xml version="1.0" encoding="utf-8"?>
<!-- Generator: Adobe Illustrator 27.4.1, SVG Export Plug-In . SVG Version: 6.00 Build 0)  -->
<svg version="1.1" id="_レイヤー_1" xmlns="http://www.w3.org/2000/svg" xmlns:xlink="http://www.w3.org/1999/xlink" x="0px"
	 y="0px" viewBox="0 0 515.5 515.5" style="enable-background:new 0 0 515.5 515.5;" xml:space="preserve">
<path d="M202.7,122.9c0-2.6,0.9-3.8,2-3.8c1.3,0,2.7,1.3,3.7,3.6c1.7,4,5.7,11,10.6,15c3.3-2.1,8.3-6.3,10.3-8.4
	c0.6-0.7,2-1.4,3-1.4c0.9,0,1.4,0.4,1.4,1.4c0,2.6-9.9,20.8-14.6,20.8c-6.6,0-16-18.3-16.4-26V122.9L202.7,122.9L202.7,122.9z
	 M233.7,136.7c0-0.7,0.6-1.3,1.6-1.3c0.7,0,1.7,0.3,2.9,1c3.7,2.3,13.6,4.4,20.7,4.4c5,0,9.6-4.9,9.6-10.6
	c0-14.8-20.7-27.3-24.3-35.8c-0.4-0.9-0.6-1.7-0.6-2.4c0-1.8,1-3.3,2.6-3.3c1.1,0,2.6,0.9,4,3c3.9,6.1,27.7,21.3,27.7,38.4
	c0,13-9.7,19.4-17.8,19.4C251,149.6,233.7,141.5,233.7,136.7L233.7,136.7L233.7,136.7z M252.5,52.8c-1.3-0.9-1.9-1.7-1.9-2.6
	s1.9-3.6,4-3.6c4.7,0,20.8,14.7,25.1,22.4c0.4,0.6,0.6,1.3,0.6,2c0,1.4-0.7,2.8-1.4,4c-1,1.9-15.9,6.1-19,6.1
	c-1.4,0-2.3-0.4-2.3-1.3c0-0.7,0.9-1.9,2.7-3.1c2.9-1.9,5.4-3.7,8.9-6.6C266.1,64.9,258.8,56.8,252.5,52.8L252.5,52.8L252.5,52.8z
	 M311.1,138.7c-1.3,0-2.3-0.7-3-2.7c-2-6.4-9.1-18.1-15.7-23.3c-1.1-0.9-1.6-1.7-1.6-2.6c0-2.1,3.1-4,5.4-4c0.7,0,1.3,0.1,1.7,0.6
	c14.3,12.6,19.4,23.6,19.4,26.3C317.3,137.3,312.2,138.7,311.1,138.7L311.1,138.7z M351,232.5c0-4.9-5-8-11.7-8H339
	c-11.6,0.2-22.7,6.5-27.5,10.7c-0.7,0.6-2,0.9-3.2,0.9c-3,0-4.2-0.6-4.2-7.8c0-10.8,2.7-32.9,8.2-32.9c1.6,0,2,1.2,2,2.3
	c0,0.5-0.1,1-0.3,1.5c-2.8,6.8-3.4,20-3.4,27v1.7c8.9-5.3,19.5-9.1,29.2-9.1c10.5,0,18.8,5.7,18.8,13.4c0,15.5-20.8,23.8-38.8,25.5
	h-1.4c-2.5,0-3.8-0.5-3.8-1.1c0-0.7,1.4-1.5,4.5-2.3C333.8,250.8,350.9,242.9,351,232.5L351,232.5L351,232.5L351,232.5z
	 M323.1,195.5c-1.9,0-2.7-0.5-2.7-1.1c0-1.1,1.7-1.7,7.9-4.3c-3.9-2.8-9.2-5.4-14.2-7.8c-1-0.4-1.4-1-1.4-1.7c0-1.3,1.9-2.8,3.1-2.8
	h0.3c6.5,1.9,17.6,6.8,21.6,10.5c0.3,0.3,0.5,0.9,0.5,1.6c0,1.7-1,4.2-2.9,4.6c-2.7,0.5-8.3,0.8-11.5,1L323.1,195.5L323.1,195.5
	L323.1,195.5z M421.4,283.4c0,12.7-20.7,16.9-25.8,16.9c-1.3,0-2-0.3-2-0.6c0-0.5,1-1.1,3.2-1.8c6.8-2.2,19.9-6.4,19.9-14.8
	c0-5.5-4-7.9-10-7.9c-5.6,0-13.2,2.2-21,5.8c-0.9,0.5-1.6,0.9-2.4,0.9c-2.1,0-4-3-4-3.8c0-0.2,0.1-0.4,0.2-0.4
	c0.1-0.1,0.4-0.1,0.6-0.1c0.4,0,0.9,0.1,1.6,0.1c0.6,0,1.2-0.1,1.9-0.4c8.4-4,16.5-6,23-6c8.6,0,14.5,3.7,14.8,12L421.4,283.4
	L421.4,283.4L421.4,283.4z M394.8,392.1c3.1,0,5.6,2,5.6,4.4c0,1.4-1,2.2-3.5,2.9c-4.8,1.3-15.3,2.1-23.5,2.1
	c-17.5,0-28.9-4.2-29.2-15.5v-0.3c0-8.7,9.3-17.3,20.1-23.6c-4.2-8.2-7.1-19.5-10-28.1c-0.2-0.6-1-1.7-1.4-2.1
	c-0.5-0.6-1.8-1-1.8-1.7c0-0.1,0.1-0.2,0.1-0.3c0.4-1.1,2.3-1.3,4.8-1.3c2.3,0.1,3.6,0.1,4.4,2.6c2.6,8.2,6.2,21.1,9.6,27.7
	c6.8-3.8,12.5-6,19.8-9c1.5-0.6,1.5-2.9,2.6-3.4h0.2c1.6,0,3.2,4.9,3.2,6.9s-0.8,2.3-4.9,3.5c-12.9,3.8-40.3,16.6-40.3,28.5v0.2
	c0.2,6,7.1,8.5,16.9,9.2c0.7,0,1.9,0.1,3.4,0.1c6.3,0,18.1-0.5,22.5-2.4L394.8,392.1L394.8,392.1L394.8,392.1z M59.3,300.2
	c-2.2,0-4.1,0.2-5.7,0.2c-2.8,0-4.7-0.3-6-1.5c-4.3-3.4-5.5-8.1-5.5-9.1c0-0.7,0.3-1,1-1c0.3,0,0.7,0,1.2,0.2
	c2.2,0.5,4.8,0.9,7.6,0.9c1.2,0,2.4-0.2,3.8-0.2l53.7-1.9l-0.9-115.2c0-3.6-0.4-10.9-2.1-13.5c-0.5-0.9-0.7-1.4-0.7-1.9
	c0-0.9,0.7-1.2,1.9-1.2s13.2,7,13.2,11.6l0.2,50.1l31.2-1.7c2.9-0.2,6-0.4,9.3-1.6c0.7-0.4,1.6-0.5,2.2-0.5c4.8,0,10.9,7.1,10.9,9
	c0,1.7-2.1,2.4-4.3,2.6l-49.3,2.9l0.3,58.9l56-2.1c2.9-0.2,6.2-0.7,8.6-1.4c0.7-0.2,1.2-0.4,1.9-0.4c2.9,0,10.7,5.7,10.7,9.5
	c0,1.7-1.9,2.4-4.3,2.6L59.3,300.2L59.3,300.2L59.3,300.2z M104.6,465c0,0-0.4-4.6,2.2-26c0-0.9,0.2-1.7,0.2-3
	c0-1.7-0.2-4.1-1.1-6.5c-0.2-0.6-0.2-1.1-0.2-1.5c0-1.1,0.7-1.5,2.2-1.5c3.9,0,15.1,3.7,15.1,7.6v0.6c-2.2,8.6-5.2,18.8-7.8,26.8
	c5.4,3.9,11,7.6,17.3,10.8l1.8-61.4l-27.6,1.5c-3,0.2-5.6,0.6-7.6,0.6c-3,0-7.3-0.6-11-10.8c-0.2-0.4-0.2-0.9-0.2-1.1
	c0-0.9,0.7-1.3,1.5-1.3c0.4,0,1.1,0.2,1.5,0.2c3.2,0.6,6.1,1.1,8.6,1.1h1.5l32.4-1.9V377l-12.9,0.9c-2.4,0.2-4.5,0.4-6.5,0.4
	c-5.6,0-8.8-2.4-11.7-10.4c0-0.4-0.2-0.6-0.2-1.1c0-0.9,0.7-1.3,1.7-1.3c0.2,0,0.9,0,1.3,0.2c2.6,0.9,5.6,1.1,8,1.1h1.9l18.6-1.3
	v-25c0-3.2-0.6-5.8-1.9-8.2c-0.6-1.1-0.9-1.9-0.9-2.6c0-0.9,0.9-1.3,2.4-1.3c3.2,0,13.4,1.1,13.4,6.3l-0.2,30l7.1-0.6
	c2.6-0.2,5.8-0.6,9.3-1.7c0.4-0.2,1.1-0.2,1.5-0.2c4.1,0,11.4,5.8,11.4,9.1c0,1.9-1.7,3-3.7,3.2l-25.7,1.7l-0.2,22.5l16.8-1.1
	c2.4-0.2,6-0.9,9.5-1.9c0.4-0.2,0.9-0.2,1.1-0.2c2.6,0,11.7,5.6,11.7,9.5c0,1.7-1.5,3-3.7,3.2l-34.5,1.9l-0.4,23.5l6.9-0.2
	c2.8,0,7.3-0.6,10.6-1.5c0.9-0.2,1.7-0.4,2.6-0.4c3.7,0,11,5.8,11,9.7c0,1.7-1.5,2.6-3.7,2.8l-27.6,1.3l-1.7,35.1
	c9.3,3.9,20.4,11.9,31.8,14.7c32.8,8.2,65.5,10.8,102.4,11.5c3.5,0,14-3,14-1.5c0,1.7-9.6,8-15.6,8l-2.4,0.2
	c-108.2-7.6-138.1-26.7-161.8-43.5 M278.9,450c-1.1,40.4-5.6,42.8-10.6,42.8c-9.9,0-20.7-15.1-23.8-19.4c-2.6-3.7-5.2-10.1-8.4-16.2
	c-14.9,19-28.7,29.8-33,29.8c-0.9,0-1.3-0.4-1.3-1.1c0-1.1,0.9-2.6,2.8-4.8c10.1-10.6,19-22.7,26.3-34.1
	c-5.4-12.7-10.4-29.1-15.1-59.8l-16,1.1l0.2,64.6c6.3-3.9,12.3-8.2,18.8-12.7c1.7-1.3,3-1.7,4.1-1.7c0.9,0,1.3,0.4,1.3,1.3
	c0,5.6-36.1,36.9-42.5,36.9c-5,0-12.5-6.9-12.5-9.5c0-0.9,0.6-1.5,1.7-1.7c2.4-0.2,5.6-0.9,16.8-5.8l-0.6-65.6
	c0-6.3-0.4-12.3-2.6-16.2c-0.6-1.3-1.3-2.4-1.3-3c0-0.9,0.6-1.3,2.2-1.3c2.2,0,6.7,1.1,14.9,3.7l13.8-0.9
	c-1.5-11.2-2.8-22.7-4.1-33.7c-0.4-3.7-1.7-6-3.4-8.6c-1.1-1.5-1.7-2.8-1.7-3.7s0.9-1.3,2.8-1.3c6.7,0,13.6,2.8,14,6.5
	c1.3,13,2.8,26.5,4.5,39.9l19-1.3c3-0.2,5.4-0.6,9.3-1.9c0.2,0,0.6-0.2,1.1-0.2c4.1,0,13,6,13,9.5c0,1.7-1.7,2.8-4.3,3l-36.5,2.2
	c3.4,24.2,7.3,37.8,10.8,47.7c2.6-5,12.5-25.5,12.5-33.9c0-1.5-0.2-2.8-0.4-4.1V395c0-1.3,0.4-1.9,1.5-1.9c0.6,0,12.1,5,12.1,10.4
	v0.6c-5.8,16.4-12.5,30.2-20.3,42.3c6.1,12.5,13,26.1,19.6,30.6c0.4,0.2,0.6,0.4,0.9,0.4c0.4,0,0.9-0.2,1.1-1.1
	c2.6-5.8,5.2-18.8,7.3-27c1.3-4.8,2.8-7.1,3.9-7.1s2.2,2.2,2.2,6.5L278.9,450L278.9,450L278.9,450z M250.2,368.6
	c-1.3,0-2.6-1.1-3.9-2.8c-4.5-5.8-11-12.7-16.4-17.3c-1.9-1.5-2.8-2.6-2.8-3.9s3.2-5.8,6.5-5.8c3,0,24.2,18.4,24.2,22.7
	C257.7,364.3,253,368.6,250.2,368.6L250.2,368.6L250.2,368.6z"/>
<image style="overflow:visible;" width="2148" height="2148" xlink:href="D70632077ED79010.png"  transform="matrix(0.24 0 0 0.24 0 -3.000977e-02)">
</image>
</svg>
