<?xml version="1.0" encoding="UTF-8"?>
<svg id="_レイヤー_1" data-name="レイヤー 1" xmlns="http://www.w3.org/2000/svg" viewBox="0 0 126.34 114.97">
  <defs>
    <style>
      .cls-1 {
        fill: #fff;
      }
    </style>
  </defs>
  <path class="cls-1" d="m125.7,1.2c-.74-.96-1.97-1.4-3.15-1.12L2.37,28.53c-1.02.24-1.84.98-2.19,1.96s-.18,2.08.46,2.91l25.83,33.6c.94,1.23,2.65,1.56,3.99.78l18.37-10.7-13.76,17.28c-.88,1.11-.89,2.67-.03,3.79l27.37,35.61c.64.83,1.65,1.28,2.69,1.19,1.04-.08,1.97-.69,2.46-1.61L125.97,4.53c.57-1.07.47-2.37-.27-3.33Zm-61.32,105.04l-23-29.93,22.48-28.22c.92-1.16.88-2.79-.08-3.93-.97-1.12-2.6-1.39-3.88-.65l-30.21,17.59-21.28-27.68L117.32,7.65l-52.93,98.6Z"/>
</svg>