<?xml version="1.0" encoding="UTF-8"?>
<svg id="_レイヤー_1" data-name="レイヤー 1" xmlns="http://www.w3.org/2000/svg" viewBox="0 0 78.39 78.39">
  <path d="m56.09,57.49c0-1.97,1.6-3.56,3.56-3.56h4.48v-4.48c0-1.96,1.6-3.56,3.56-3.56s3.56,1.6,3.56,3.56v4.48h1.58v-30.7c0-1.56-1.26-2.82-2.82-2.82h-7.59c-1.56,0-2.82-1.26-2.82-2.82v-4.55c0-1.56-1.26-2.82-2.82-2.82H21.59c-1.56,0-2.82,1.26-2.82,2.82v4.55c0,1.56-1.26,2.82-2.82,2.82h-7.59c-1.56,0-2.82,1.26-2.82,2.82v38.17c0,1.56,1.26,2.82,2.82,2.82h55.78v-3.16h-4.48c-1.97,0-3.56-1.6-3.56-3.56Zm-16.9,4.14c-10.67,0-19.32-8.65-19.32-19.32s8.65-19.32,19.32-19.32,19.32,8.65,19.32,19.32-8.65,19.32-19.32,19.32Zm0-35.08c-8.71,0-15.76,7.06-15.76,15.76s7.06,15.76,15.76,15.76,15.76-7.06,15.76-15.76-7.06-15.76-15.76-15.76Zm0,27.2c-6.32,0-11.44-5.12-11.44-11.44s5.12-11.44,11.44-11.44,11.44,5.12,11.44,11.44-5.12,11.44-11.44,11.44Zm32.07,7.3h1.58v.34c0,1.11-.65,2.06-1.58,2.52v-2.86Zm7.12-3.56c0,1.46-1.18,2.64-2.64,2.64h-5.41v5.41c0,1.46-1.18,2.64-2.64,2.64s-2.64-1.18-2.64-2.64v-5.41h-5.41c-1.46,0-2.64-1.18-2.64-2.64s1.18-2.64,2.64-2.64h5.41v-5.41c0-1.46,1.18-2.64,2.64-2.64s2.64,1.18,2.64,2.64v5.41h5.41c1.46,0,2.64,1.18,2.64,2.64Z"/>
</svg>