<?xml version="1.0" encoding="UTF-8"?>
<svg id="_レイヤー_1" data-name="レイヤー 1" xmlns="http://www.w3.org/2000/svg" viewBox="0 0 78.39 78.39">
  <path d="m77.35,70.83l-20.98-20.98s-.02-.02-.03-.03c3.85-5.19,6.13-11.62,6.13-18.59C62.47,13.98,48.49,0,31.24,0S0,13.98,0,31.24s13.98,31.24,31.24,31.24c6.96,0,13.39-2.28,18.59-6.13,0,0,.02.02.03.03l20.98,20.98c1.39,1.39,3.65,1.39,5.04,0l1.48-1.48c1.39-1.39,1.39-3.65,0-5.04Zm-46.11-16.57c-12.71,0-23.02-10.31-23.02-23.02S18.52,8.22,31.24,8.22s23.02,10.31,23.02,23.02-10.31,23.02-23.02,23.02Z"/>
</svg>